<mxfile host="app.diagrams.net" agent="Mozilla/5.0 (Macintosh; Intel Mac OS X 10.15; rv:128.0) Gecko/20100101 Firefox/128.0" version="28.0.6">
  <diagram name="DQN Training Pipeline" id="cIPJ17noC-63OSlOP32A">
    <mxGraphModel dx="294" dy="1134" grid="1" gridSize="10" guides="1" tooltips="1" connect="1" arrows="1" fold="1" page="1" pageScale="1" pageWidth="850" pageHeight="1100" math="1" shadow="0">
      <root>
        <mxCell id="0" />
        <mxCell id="1" parent="0" />
        <mxCell id="Y0RkEYPqezOAxE-aHTsh-58" style="edgeStyle=orthogonalEdgeStyle;rounded=0;orthogonalLoop=1;jettySize=auto;html=1;exitX=1;exitY=0.5;exitDx=0;exitDy=0;entryX=0;entryY=0.5;entryDx=0;entryDy=0;strokeWidth=2;" edge="1" parent="1" source="Y0RkEYPqezOAxE-aHTsh-1" target="Y0RkEYPqezOAxE-aHTsh-8">
          <mxGeometry relative="1" as="geometry" />
        </mxCell>
        <mxCell id="Y0RkEYPqezOAxE-aHTsh-1" value="" style="rounded=1;whiteSpace=wrap;html=1;fillColor=#ffebee;strokeColor=#c62828;strokeWidth=2;" vertex="1" parent="1">
          <mxGeometry x="1760" y="978" width="491" height="110" as="geometry" />
        </mxCell>
        <mxCell id="Y0RkEYPqezOAxE-aHTsh-2" value="1. Poisson Equation → Linear System" style="text;html=1;strokeColor=none;fillColor=none;align=center;verticalAlign=middle;whiteSpace=wrap;rounded=0;fontSize=20;fontStyle=1" vertex="1" parent="1">
          <mxGeometry x="1775" y="988" width="400" height="30" as="geometry" />
        </mxCell>
        <mxCell id="Y0RkEYPqezOAxE-aHTsh-3" value="Poisson Equation" style="text;html=1;strokeColor=none;fillColor=none;align=center;verticalAlign=middle;whiteSpace=wrap;rounded=0;fontSize=16;" vertex="1" parent="1">
          <mxGeometry x="1767" y="1018" width="150" height="60" as="geometry" />
        </mxCell>
        <mxCell id="Y0RkEYPqezOAxE-aHTsh-4" value="" style="edgeStyle=orthogonalEdgeStyle;rounded=0;orthogonalLoop=1;jettySize=auto;html=1;strokeWidth=3;" edge="1" parent="1" target="Y0RkEYPqezOAxE-aHTsh-7">
          <mxGeometry relative="1" as="geometry">
            <mxPoint x="2070" y="1048" as="sourcePoint" />
          </mxGeometry>
        </mxCell>
        <mxCell id="Y0RkEYPqezOAxE-aHTsh-5" value="Finite Element&lt;br&gt;Method (FEM)" style="text;html=1;strokeColor=none;fillColor=none;align=center;verticalAlign=middle;whiteSpace=wrap;rounded=0;fontSize=16;" vertex="1" parent="1">
          <mxGeometry x="1938.5" y="1028" width="150" height="40" as="geometry" />
        </mxCell>
        <mxCell id="Y0RkEYPqezOAxE-aHTsh-6" style="edgeStyle=orthogonalEdgeStyle;rounded=0;orthogonalLoop=1;jettySize=auto;html=1;strokeWidth=3;endArrow=classic;endFill=1;" edge="1" parent="1">
          <mxGeometry relative="1" as="geometry">
            <mxPoint x="1910" y="1048" as="sourcePoint" />
            <mxPoint x="1951" y="1048" as="targetPoint" />
          </mxGeometry>
        </mxCell>
        <mxCell id="Y0RkEYPqezOAxE-aHTsh-7" value="A x = b" style="rounded=1;whiteSpace=wrap;html=1;fillColor=#ffcdd2;strokeColor=#c62828;fontSize=18;" vertex="1" parent="1">
          <mxGeometry x="2116" y="1023" width="115" height="50" as="geometry" />
        </mxCell>
        <mxCell id="Y0RkEYPqezOAxE-aHTsh-8" value="" style="rounded=1;whiteSpace=wrap;html=1;fillColor=#fff3e0;strokeColor=#f57c00;strokeWidth=2;fontSize=21;" vertex="1" parent="1">
          <mxGeometry x="2317" y="968" width="233" height="130" as="geometry" />
        </mxCell>
        <mxCell id="Y0RkEYPqezOAxE-aHTsh-9" value="2. Grid" style="text;html=1;strokeColor=none;fillColor=none;align=center;verticalAlign=middle;whiteSpace=wrap;rounded=0;fontSize=20;fontStyle=1" vertex="1" parent="1">
          <mxGeometry x="2332" y="978" width="150" height="30" as="geometry" />
        </mxCell>
        <mxCell id="Y0RkEYPqezOAxE-aHTsh-11" value="$$A$$" style="text;html=1;strokeColor=none;fillColor=none;align=center;verticalAlign=middle;whiteSpace=wrap;rounded=0;fontSize=25;strokeWidth=2;" vertex="1" parent="1">
          <mxGeometry x="2257" y="999" width="50" height="20" as="geometry" />
        </mxCell>
        <mxCell id="Y0RkEYPqezOAxE-aHTsh-12" value="" style="rounded=1;whiteSpace=wrap;html=1;fillColor=#f5f5f5;strokeColor=default;strokeWidth=2;arcSize=9;fontColor=#333333;fillStyle=auto;" vertex="1" parent="1">
          <mxGeometry x="1810" y="1160" width="753" height="450" as="geometry" />
        </mxCell>
        <mxCell id="Y0RkEYPqezOAxE-aHTsh-13" value="PPO Training Loop" style="text;html=1;align=center;verticalAlign=middle;whiteSpace=wrap;rounded=0;fontSize=19;fontStyle=1" vertex="1" parent="1">
          <mxGeometry x="1833" y="1167" width="220" height="30" as="geometry" />
        </mxCell>
        <mxCell id="Y0RkEYPqezOAxE-aHTsh-63" style="edgeStyle=orthogonalEdgeStyle;rounded=0;orthogonalLoop=1;jettySize=auto;html=1;exitX=0.5;exitY=0;exitDx=0;exitDy=0;entryX=0.5;entryY=1;entryDx=0;entryDy=0;strokeWidth=2;" edge="1" parent="1" source="Y0RkEYPqezOAxE-aHTsh-16" target="Y0RkEYPqezOAxE-aHTsh-8">
          <mxGeometry relative="1" as="geometry" />
        </mxCell>
        <mxCell id="Y0RkEYPqezOAxE-aHTsh-71" style="edgeStyle=orthogonalEdgeStyle;rounded=0;orthogonalLoop=1;jettySize=auto;html=1;exitX=0;exitY=0.75;exitDx=0;exitDy=0;entryX=1;entryY=0.75;entryDx=0;entryDy=0;strokeWidth=2;" edge="1" parent="1" source="Y0RkEYPqezOAxE-aHTsh-16" target="Y0RkEYPqezOAxE-aHTsh-19">
          <mxGeometry relative="1" as="geometry">
            <Array as="points">
              <mxPoint x="2258" y="1279" />
            </Array>
          </mxGeometry>
        </mxCell>
        <mxCell id="Y0RkEYPqezOAxE-aHTsh-16" value="" style="rounded=1;whiteSpace=wrap;html=1;fillColor=#e8f5e9;strokeColor=#388e3c;strokeWidth=2;" vertex="1" parent="1">
          <mxGeometry x="2258" y="1201" width="254" height="113" as="geometry" />
        </mxCell>
        <mxCell id="Y0RkEYPqezOAxE-aHTsh-17" value="3. Gym Environment" style="text;html=1;strokeColor=none;fillColor=none;align=center;verticalAlign=middle;whiteSpace=wrap;rounded=0;fontSize=20;fontStyle=1" vertex="1" parent="1">
          <mxGeometry x="2268.5" y="1212" width="225" height="30" as="geometry" />
        </mxCell>
        <mxCell id="Y0RkEYPqezOAxE-aHTsh-70" style="edgeStyle=orthogonalEdgeStyle;rounded=0;orthogonalLoop=1;jettySize=auto;html=1;exitX=1;exitY=0.25;exitDx=0;exitDy=0;entryX=0;entryY=0.25;entryDx=0;entryDy=0;strokeWidth=2;" edge="1" parent="1" source="Y0RkEYPqezOAxE-aHTsh-19" target="Y0RkEYPqezOAxE-aHTsh-16">
          <mxGeometry relative="1" as="geometry" />
        </mxCell>
        <mxCell id="Y0RkEYPqezOAxE-aHTsh-19" value="PPO + GNN" style="rounded=1;whiteSpace=wrap;html=1;fillColor=#f3e5f5;strokeColor=#7b1fa2;strokeWidth=2;fontSize=23;fontStyle=1" vertex="1" parent="1">
          <mxGeometry x="1906" y="1204" width="215" height="100" as="geometry" />
        </mxCell>
        <mxCell id="Y0RkEYPqezOAxE-aHTsh-72" style="edgeStyle=orthogonalEdgeStyle;rounded=0;orthogonalLoop=1;jettySize=auto;html=1;exitX=0;exitY=0.5;exitDx=0;exitDy=0;entryX=1;entryY=0.5;entryDx=0;entryDy=0;strokeWidth=2;" edge="1" parent="1" source="Y0RkEYPqezOAxE-aHTsh-25" target="Y0RkEYPqezOAxE-aHTsh-29">
          <mxGeometry relative="1" as="geometry" />
        </mxCell>
        <mxCell id="Y0RkEYPqezOAxE-aHTsh-25" value="" style="rounded=1;whiteSpace=wrap;html=1;fillColor=#e1f5fe;strokeColor=#0288d1;strokeWidth=2;" vertex="1" parent="1">
          <mxGeometry x="2310" y="1379.38" width="200" height="100" as="geometry" />
        </mxCell>
        <mxCell id="Y0RkEYPqezOAxE-aHTsh-26" value="Replay Memory" style="text;html=1;strokeColor=none;fillColor=none;align=center;verticalAlign=middle;whiteSpace=wrap;rounded=0;fontSize=20;fontStyle=1" vertex="1" parent="1">
          <mxGeometry x="2330" y="1399.38" width="160" height="20" as="geometry" />
        </mxCell>
        <mxCell id="Y0RkEYPqezOAxE-aHTsh-28" style="edgeStyle=orthogonalEdgeStyle;rounded=0;orthogonalLoop=1;jettySize=auto;html=1;exitX=0.5;exitY=1;exitDx=0;exitDy=0;entryX=0.5;entryY=0;entryDx=0;entryDy=0;strokeWidth=2;" edge="1" parent="1" target="Y0RkEYPqezOAxE-aHTsh-42">
          <mxGeometry relative="1" as="geometry">
            <Array as="points">
              <mxPoint x="2078" y="1442" />
              <mxPoint x="2078" y="1467" />
              <mxPoint x="1980" y="1467" />
            </Array>
            <mxPoint x="2002" y="1442.88" as="sourcePoint" />
          </mxGeometry>
        </mxCell>
        <mxCell id="Y0RkEYPqezOAxE-aHTsh-73" style="edgeStyle=orthogonalEdgeStyle;rounded=0;orthogonalLoop=1;jettySize=auto;html=1;exitX=0.5;exitY=0;exitDx=0;exitDy=0;strokeWidth=2;" edge="1" parent="1" source="Y0RkEYPqezOAxE-aHTsh-29" target="Y0RkEYPqezOAxE-aHTsh-19">
          <mxGeometry relative="1" as="geometry" />
        </mxCell>
        <mxCell id="Y0RkEYPqezOAxE-aHTsh-29" value="" style="rounded=1;whiteSpace=wrap;html=1;fillColor=#fff8e1;strokeColor=#ffa000;strokeWidth=2;" vertex="1" parent="1">
          <mxGeometry x="1892" y="1379.88" width="220" height="100" as="geometry" />
        </mxCell>
        <mxCell id="Y0RkEYPqezOAxE-aHTsh-30" value="Training Update" style="text;html=1;strokeColor=none;fillColor=none;align=center;verticalAlign=middle;whiteSpace=wrap;rounded=0;fontSize=20;fontStyle=1" vertex="1" parent="1">
          <mxGeometry x="1921" y="1387.88" width="160" height="20" as="geometry" />
        </mxCell>
        <mxCell id="Y0RkEYPqezOAxE-aHTsh-31" value="&lt;div&gt;Sample batch&lt;/div&gt;&lt;div&gt;Update network weights&lt;br&gt;&lt;/div&gt;" style="text;html=1;strokeColor=none;fillColor=none;align=center;verticalAlign=middle;whiteSpace=wrap;rounded=0;fontSize=16;" vertex="1" parent="1">
          <mxGeometry x="1904" y="1416.88" width="190" height="55" as="geometry" />
        </mxCell>
        <mxCell id="Y0RkEYPqezOAxE-aHTsh-32" value="Trained Policy π*&lt;br&gt;Coarsens to achieve A_FF diagonal dominance" style="rounded=1;whiteSpace=wrap;html=1;fillColor=#c8e6c9;strokeColor=#2e7d32;strokeWidth=2;fontSize=17;" vertex="1" parent="1">
          <mxGeometry x="2307" y="1517" width="240" height="70" as="geometry" />
        </mxCell>
        <mxCell id="Y0RkEYPqezOAxE-aHTsh-33" value="$$a_t = i$$" style="text;html=1;strokeColor=none;fillColor=none;align=center;verticalAlign=middle;whiteSpace=wrap;rounded=0;fontSize=21;fontStyle=1" vertex="1" parent="1">
          <mxGeometry x="2164" y="1199" width="60" height="22" as="geometry" />
        </mxCell>
        <mxCell id="Y0RkEYPqezOAxE-aHTsh-35" value="$$\mathcal{C} \leftarrow \mathcal{C} \cup \{i\}&lt;br&gt;&amp;nbsp;$$" style="text;html=1;strokeColor=none;fillColor=none;align=center;verticalAlign=middle;whiteSpace=wrap;rounded=0;fontSize=20;fontStyle=1" vertex="1" parent="1">
          <mxGeometry x="2451" y="1112" width="105" height="30" as="geometry" />
        </mxCell>
        <mxCell id="Y0RkEYPqezOAxE-aHTsh-37" value="$$G_{t+1}$$" style="text;html=1;strokeColor=none;fillColor=none;align=center;verticalAlign=middle;whiteSpace=wrap;rounded=0;fontSize=20;fontStyle=1" vertex="1" parent="1">
          <mxGeometry x="2280" y="1105" width="56.5" height="40" as="geometry" />
        </mxCell>
        <mxCell id="Y0RkEYPqezOAxE-aHTsh-38" value="$$(s_t,a_t,r_t,s_{t+1})$$" style="text;html=1;strokeColor=none;fillColor=none;align=center;verticalAlign=middle;whiteSpace=wrap;rounded=0;fontSize=19;strokeWidth=2;" vertex="1" parent="1">
          <mxGeometry x="2315.5" y="1339" width="105" height="20" as="geometry" />
        </mxCell>
        <mxCell id="Y0RkEYPqezOAxE-aHTsh-39" value="No: Continue" style="text;html=1;strokeColor=none;fillColor=none;align=left;verticalAlign=middle;whiteSpace=wrap;rounded=0;fontSize=18;rotation=90;" vertex="1" parent="1">
          <mxGeometry x="1782" y="1411.88" width="120" height="20" as="geometry" />
        </mxCell>
        <mxCell id="Y0RkEYPqezOAxE-aHTsh-40" value="Yes" style="text;html=1;strokeColor=none;fillColor=none;align=center;verticalAlign=middle;whiteSpace=wrap;rounded=0;fontSize=18;" vertex="1" parent="1">
          <mxGeometry x="2141" y="1556" width="30" height="20" as="geometry" />
        </mxCell>
        <mxCell id="Y0RkEYPqezOAxE-aHTsh-41" style="edgeStyle=orthogonalEdgeStyle;rounded=1;orthogonalLoop=1;jettySize=auto;html=1;exitX=0;exitY=0.5;exitDx=0;exitDy=0;entryX=0;entryY=0.5;entryDx=0;entryDy=0;curved=0;strokeColor=#7B1FA2;strokeWidth=3;dashed=1;" edge="1" parent="1" source="Y0RkEYPqezOAxE-aHTsh-42" target="Y0RkEYPqezOAxE-aHTsh-19">
          <mxGeometry relative="1" as="geometry">
            <Array as="points">
              <mxPoint x="1860" y="1546" />
              <mxPoint x="1860" y="1254" />
            </Array>
          </mxGeometry>
        </mxCell>
        <mxCell id="Y0RkEYPqezOAxE-aHTsh-42" value="Converged?" style="ellipse;whiteSpace=wrap;html=1;fillColor=#ffecb3;strokeColor=#ff6f00;strokeWidth=2;fontSize=19;" vertex="1" parent="1">
          <mxGeometry x="1892" y="1521" width="175" height="50" as="geometry" />
        </mxCell>
        <mxCell id="Y0RkEYPqezOAxE-aHTsh-43" value="&lt;div&gt;State : G = (V,E)&lt;/div&gt;&lt;div&gt;Action : Discrete(N)&lt;/div&gt;&lt;div&gt;Reward : -1 per step&lt;br&gt;&lt;/div&gt;" style="text;html=1;strokeColor=none;fillColor=none;align=left;verticalAlign=middle;whiteSpace=wrap;rounded=0;fontSize=16;" vertex="1" parent="1">
          <mxGeometry x="2307" y="1242" width="180" height="63" as="geometry" />
        </mxCell>
        <mxCell id="Y0RkEYPqezOAxE-aHTsh-44" style="edgeStyle=orthogonalEdgeStyle;rounded=0;orthogonalLoop=1;jettySize=auto;html=1;exitX=1;exitY=0.5;exitDx=0;exitDy=0;entryX=0;entryY=0.5;entryDx=0;entryDy=0;fontSize=20;" edge="1" parent="1" source="Y0RkEYPqezOAxE-aHTsh-45" target="Y0RkEYPqezOAxE-aHTsh-46">
          <mxGeometry relative="1" as="geometry" />
        </mxCell>
        <mxCell id="Y0RkEYPqezOAxE-aHTsh-45" value="$$A$$" style="text;html=1;align=center;verticalAlign=middle;whiteSpace=wrap;rounded=0;fontSize=20;" vertex="1" parent="1">
          <mxGeometry x="2325" y="1018" width="25" height="30" as="geometry" />
        </mxCell>
        <mxCell id="Y0RkEYPqezOAxE-aHTsh-46" value="$$G_t=(V_t,E_t)$$" style="text;html=1;align=center;verticalAlign=middle;whiteSpace=wrap;rounded=0;fontSize=20;" vertex="1" parent="1">
          <mxGeometry x="2383.75" y="1018" width="183.5" height="30" as="geometry" />
        </mxCell>
        <mxCell id="Y0RkEYPqezOAxE-aHTsh-47" value="$$\mathcal{F},\mathcal{C},\mathcal{V}$$" style="text;html=1;align=center;verticalAlign=middle;whiteSpace=wrap;rounded=0;fontSize=20;" vertex="1" parent="1">
          <mxGeometry x="2365" y="1048" width="60" height="30" as="geometry" />
        </mxCell>
        <mxCell id="Y0RkEYPqezOAxE-aHTsh-48" value="$$(s_t,a_t,r_t,s_{t+1},\text{done})$$" style="text;html=1;strokeColor=none;fillColor=none;align=center;verticalAlign=middle;whiteSpace=wrap;rounded=0;fontSize=17;" vertex="1" parent="1">
          <mxGeometry x="2357.5" y="1431.88" width="105" height="20" as="geometry" />
        </mxCell>
        <mxCell id="Y0RkEYPqezOAxE-aHTsh-54" style="edgeStyle=orthogonalEdgeStyle;rounded=0;orthogonalLoop=1;jettySize=auto;html=1;exitX=1;exitY=0.5;exitDx=0;exitDy=0;entryX=-0.005;entryY=0.402;entryDx=0;entryDy=0;entryPerimeter=0;strokeWidth=2;" edge="1" parent="1" source="Y0RkEYPqezOAxE-aHTsh-42" target="Y0RkEYPqezOAxE-aHTsh-32">
          <mxGeometry relative="1" as="geometry" />
        </mxCell>
        <mxCell id="Y0RkEYPqezOAxE-aHTsh-55" value="$$s_t$$" style="text;html=1;strokeColor=none;fillColor=none;align=center;verticalAlign=middle;whiteSpace=wrap;rounded=0;fontSize=22;strokeWidth=2;" vertex="1" parent="1">
          <mxGeometry x="2167" y="1285" width="60" height="20" as="geometry" />
        </mxCell>
        <mxCell id="Y0RkEYPqezOAxE-aHTsh-62" style="edgeStyle=orthogonalEdgeStyle;rounded=0;orthogonalLoop=1;jettySize=auto;html=1;exitX=0.25;exitY=1;exitDx=0;exitDy=0;entryX=0.291;entryY=0.018;entryDx=0;entryDy=0;entryPerimeter=0;strokeWidth=2;" edge="1" parent="1" source="Y0RkEYPqezOAxE-aHTsh-8" target="Y0RkEYPqezOAxE-aHTsh-16">
          <mxGeometry relative="1" as="geometry" />
        </mxCell>
        <mxCell id="Y0RkEYPqezOAxE-aHTsh-65" style="edgeStyle=orthogonalEdgeStyle;rounded=0;orthogonalLoop=1;jettySize=auto;html=1;exitX=0.75;exitY=1;exitDx=0;exitDy=0;entryX=0.695;entryY=0.046;entryDx=0;entryDy=0;entryPerimeter=0;strokeWidth=2;" edge="1" parent="1" source="Y0RkEYPqezOAxE-aHTsh-16" target="Y0RkEYPqezOAxE-aHTsh-25">
          <mxGeometry relative="1" as="geometry" />
        </mxCell>
      </root>
    </mxGraphModel>
  </diagram>
</mxfile>
